<svg id="rhi_logo" data-name="rhi_logo" xmlns="http://www.w3.org/2000/svg" xmlns:xlink="http://www.w3.org/1999/xlink" width="91.063" height="54" viewBox="0 0 91.063 54">
  <g id="Gruppe_5" data-name="Gruppe 5">
    <path id="logocolor" data-name="Pfad 11" d="M46.829,52.4a2.706,2.706,0,0,1-1.058.216c-1.838,0-3.1-.9-3.1-2.943a2.724,2.724,0,0,1,2.846-2.966,3.009,3.009,0,0,1,2.2.805,1.357,1.357,0,0,0,.576-.974.8.8,0,0,0-.42-.636,4.124,4.124,0,0,0-2.33-.576,4.192,4.192,0,0,0-4.467,4.347c0,2.859,1.934,4.324,4.671,4.324a4.415,4.415,0,0,0,2.546-.685V49.952a.746.746,0,0,0-.852-.816H44.956a1.923,1.923,0,0,0-.084.563c0,.552.227.769.709.769h1.249ZM24.394,53.784c.06-1.105.253-4.864.325-5.969.576,1.116,1.561,3.17,1.874,3.915a1.713,1.713,0,0,0,.613.12,1.774,1.774,0,0,0,.613-.12c.347-.782,1.5-3.182,1.872-3.938.036.72.313,5.236.349,5.992h1.488c-.071-1.358-.37-6.7-.456-8.072a2.235,2.235,0,0,0-.889-.167,1.158,1.158,0,0,0-1.165.709c-.323.659-1.321,2.75-1.778,3.722l-2.065-4.264a2.207,2.207,0,0,0-.829-.167.973.973,0,0,0-1.045.985c-.084,1.056-.349,5.992-.409,7.254ZM0,53.784H1.491V50.757a10.4,10.4,0,0,0,1.225.084A6.642,6.642,0,0,0,3.4,50.8a27.929,27.929,0,0,1,1.7,2.979H6.823A27.524,27.524,0,0,0,4.89,50.458a2.378,2.378,0,0,0,1.538-2.33c0-1.634-1.225-2.666-3.664-2.666a12.109,12.109,0,0,0-2.1.12A.73.73,0,0,0,0,46.361Zm1.491-6.941a7.207,7.207,0,0,1,1.236-.073c1.694,0,2.139.649,2.139,1.369,0,.842-.516,1.394-2.1,1.394a5.445,5.445,0,0,1-1.272-.1Zm32.463,6.941c.18-.492.456-1.225.805-2.1h3.615c.253.636.66,1.7.805,2.1h1.657c-.385-1.022-2.619-6.847-3.388-8.143a2.234,2.234,0,0,0-.792-.146,1.172,1.172,0,0,0-1.189.855c-1.129,2.533-2.257,5.32-3.026,7.433Zm1.285-3.412c.433-1.176,1-2.461,1.358-3.279.227.492.936,2.174,1.321,3.279Zm30.555,2.679A6.517,6.517,0,0,0,69.24,54c2.174,0,3.352-1.009,3.352-2.533,0-1.382-.912-2.127-2.546-2.427l-1.225-.229c-.912-.167-1.358-.48-1.358-1.092,0-.649.433-1.058,1.657-1.058a3.681,3.681,0,0,1,2.572.878,1.292,1.292,0,0,0,.48-.938.794.794,0,0,0-.433-.647,4.517,4.517,0,0,0-2.643-.625c-2.247,0-3.182,1.129-3.182,2.487,0,1.512,1.249,2.174,2.51,2.4l1.2.216c.792.146,1.345.386,1.345,1.131,0,.683-.529,1.079-1.7,1.079a5.148,5.148,0,0,1-2.8-.805ZM9.513,45.628a2.289,2.289,0,0,0-.673-.083c-.492,0-.852.216-.852.659v7.579H9.513v-3.6h3.842v3.6h1.527V45.628a2.289,2.289,0,0,0-.672-.083c-.493,0-.855.216-.855.659v2.619H9.513Zm47.44,0a2.266,2.266,0,0,0-.672-.083c-.54,0-.853.216-.853.659v5.129c-1-1.6-3.362-5.056-3.842-5.656a2.222,2.222,0,0,0-.733-.133c-.542,0-.962.216-.962.839v7.4h1.525V47.742c1.214,1.694,3.208,4.757,4,6.042h1.536Zm3.3,3.243V46.926h4.335a1.482,1.482,0,0,0,.084-.589c0-.443-.216-.792-.659-.792H59.609c-.576,0-.878.287-.878.816v7.423h5.945V52.4H60.258v-2.15h3.555a1.479,1.479,0,0,0,.084-.589c0-.443-.216-.792-.662-.792ZM73.8,53.784h1.527V45.628a2.29,2.29,0,0,0-.673-.083c-.516,0-.854.216-.854.66Zm9.417-6.858c.446,0,.662-.349.662-.792a1.456,1.456,0,0,0-.086-.589H76.963c-.443,0-.66.349-.66.792a1.507,1.507,0,0,0,.084.589h2.943v6.858h1.525V46.926ZM16.611,53.784h1.525V45.628a2.266,2.266,0,0,0-.672-.083c-.516,0-.852.216-.852.66Zm67.571,0c.18-.492.456-1.225.805-2.1H88.6c.251.636.66,1.7.8,2.1h1.658c-.383-1.021-2.617-6.847-3.386-8.143a2.244,2.244,0,0,0-.792-.146,1.176,1.176,0,0,0-1.191.855c-1.129,2.534-2.258,5.32-3.026,7.434Zm1.285-3.411c.433-1.176,1-2.461,1.358-3.279.227.492.936,2.174,1.319,3.279ZM61.35.3a1.577,1.577,0,0,0-.876-.3A1.593,1.593,0,0,0,59.6.3L44.752,8.865,29.955.3a1.61,1.61,0,0,0-.878-.3A1.562,1.562,0,0,0,28.2.3L12.949,9.128a1.172,1.172,0,0,0-.733,1.082,1.211,1.211,0,0,0,.733,1.058L28.2,20.1a1.565,1.565,0,0,0,.876.3,1.6,1.6,0,0,0,.878-.3L60.018,2.752a.928.928,0,0,1,.456-.169.987.987,0,0,1,.48.169L75.017,10.9a1.607,1.607,0,0,1,.769.889c1.116-.36,1.548-.865,1.548-1.55,0-.443-.216-.8-.985-1.249ZM42.433,10.2,39.5,11.891,29.955,6.355a1.6,1.6,0,0,0-.878-.3,1.571,1.571,0,0,0-.876.3l-9.56,5.525L15.722,10.2l12.9-7.446a.933.933,0,0,1,.456-.169.922.922,0,0,1,.456.169Zm18.917,2.21a1.574,1.574,0,0,0-.876-.3,1.594,1.594,0,0,0-.878.3L29.534,29.75a.929.929,0,0,1-.456.169.987.987,0,0,1-.48-.169L14.533,21.607a1.6,1.6,0,0,1-.769-.889c-1.116.36-1.548.865-1.548,1.551,0,.443.216.8.985,1.248l15,8.682a1.573,1.573,0,0,0,.876.3,1.6,1.6,0,0,0,.878-.3L60.018,14.857a.92.92,0,0,1,.456-.167,1,1,0,0,1,.48.167L75.018,23a1.607,1.607,0,0,1,.769.889c1.116-.362,1.548-.865,1.548-1.55,0-.443-.216-.8-.985-1.249Zm0-6.054a1.566,1.566,0,0,0-.876-.3,1.6,1.6,0,0,0-.878.3L29.534,23.7a.926.926,0,0,1-.456.169.987.987,0,0,1-.48-.169L14.533,15.555a1.614,1.614,0,0,1-.769-.889c-1.116.36-1.548.865-1.548,1.548,0,.445.216.805.985,1.249l15,8.684a1.566,1.566,0,0,0,.876.3,1.6,1.6,0,0,0,.878-.3L60.018,8.8a.92.92,0,0,1,.456-.167,1,1,0,0,1,.48.167l14.064,8.143a1.624,1.624,0,0,1,.769.889c1.116-.36,1.548-.863,1.548-1.548,0-.445-.216-.805-.985-1.249Zm-32.729,7.8a.933.933,0,0,1,.456-.169.922.922,0,0,1,.456.169l3.052,1.741-3.052,1.754a.919.919,0,0,1-.456.167,1,1,0,0,1-.48-.167l-3.026-1.754ZM37.389,13.1l-2.906,1.681-4.528-2.619a1.656,1.656,0,0,0-.878-.3,1.573,1.573,0,0,0-.876.3L23.65,14.786l-2.9-1.681,7.866-4.54a.934.934,0,0,1,.456-.169.923.923,0,0,1,.456.169ZM28.2,38.254a1.565,1.565,0,0,0,.876.3,1.6,1.6,0,0,0,.878-.3L44.8,29.69l14.8,8.564a1.6,1.6,0,0,0,.878.3,1.572,1.572,0,0,0,.876-.3L76.6,29.427a1.169,1.169,0,0,0,.732-1.082,1.21,1.21,0,0,0-.732-1.056L61.35,18.461a1.565,1.565,0,0,0-.876-.3,1.6,1.6,0,0,0-.878.3L29.534,35.8a.919.919,0,0,1-.456.167,1,1,0,0,1-.48-.167L14.533,27.662a1.614,1.614,0,0,1-.769-.889c-1.116.36-1.548.863-1.548,1.548,0,.446.216.805.985,1.249Zm18.917-9.9,2.93-1.694L59.6,32.2a1.606,1.606,0,0,0,.878.3,1.564,1.564,0,0,0,.876-.3l9.56-5.523,2.919,1.681L60.93,35.8a.927.927,0,0,1-.456.167.937.937,0,0,1-.456-.167ZM60.93,24.407a.706.706,0,0,1-.912,0l-3.052-1.741,3.052-1.754a.928.928,0,0,1,.456-.169.988.988,0,0,1,.48.169l3.026,1.754Zm-8.768,1.045,2.906-1.681L59.6,26.388a1.639,1.639,0,0,0,.878.3,1.572,1.572,0,0,0,.876-.3L65.9,23.771l2.9,1.681-7.866,4.54a.927.927,0,0,1-.456.167.937.937,0,0,1-.456-.167Z" transform="translate(0 0)" fill="#3c4d5f"/>
  </g>
</svg>
