<?xml version="1.0" encoding="UTF-8" standalone="no"?>
<!DOCTYPE svg PUBLIC "-//W3C//DTD SVG 1.0//EN" "http://www.w3.org/TR/2001/REC-SVG-20010904/DTD/svg10.dtd">
<!-- Created with Inkscape (http://www.inkscape.org/) -->
<svg
   xmlns:svg="http://www.w3.org/2000/svg"
   xmlns="http://www.w3.org/2000/svg"
   version="1.0"
   width="600"
   height="160"
   id="svg2482">
  <defs
     id="defs2484">
    <clipPath
       id="clipPath91">
      <path
         d="M 6902.4,1488.159 L 6902.4,916.48 L 9195.113,916.48 L 9195.113,1488.159"
         id="path93" />
    </clipPath>
    <clipPath
       id="clipPath83">
      <path
         d="M 2.83,-0.06 L 629.29,-0.06 L 629.29,856 L 2.83,856 L 2.83,-0.06 z"
         id="path85" />
    </clipPath>
  </defs>
  <g
     transform="translate(-370.44085,-250.43635)"
     id="layer1">
    <g
       transform="matrix(4.1173928,0,0,-4.1173928,-1400.8024,639.8377)"
       id="g79">
      <g
         clip-path="url(#clipPath83)"
         id="g81">
        <g
           transform="scale(6.25e-2,6.25e-2)"
           id="g87">
          <g
             clip-path="url(#clipPath91)"
             id="g89">
            <path
               d="M 7467.243,1488.159 L 7355.944,1488.159 L 7015.412,1224.534 L 6948.333,1224.534 L 6902.4,1177.107 L 7015.412,1177.107 L 7355.513,916.48 L 7466.605,916.48 L 7239.512,1177.107 L 7466.605,1177.107 L 7466.605,1224.748 L 7239.512,1224.748 L 7467.243,1488.159"
               id="path95"
               style="fill:#014698;fill-opacity:1;fill-rule:nonzero;stroke:none" />
            <path
               d="M 7861.827,1224.748 L 7738.349,1224.748 L 7738.349,1247.822 L 7861.827,1247.822 L 7861.827,1286.704 L 7691.773,1286.704 L 7691.773,1126.903 L 7861.827,1126.903 L 7861.827,1166.001 L 7738.349,1166.001 L 7738.349,1191.848 L 7861.827,1191.848 L 7861.827,1224.748"
               id="path97"
               style="fill:#014698;fill-opacity:1;fill-rule:nonzero;stroke:none" />
            <path
               d="M 7932.111,1247.822 L 7938.096,1247.822 L 7997.057,1126.903 L 8040.211,1126.903 L 8098.751,1247.822 L 8105.156,1247.822 L 8105.156,1126.903 L 8151.517,1126.903 L 8151.517,1286.704 L 8066.275,1286.704 L 8025.043,1201.464 L 8017.992,1184.797 L 8011.369,1201.464 L 7970.993,1286.704 L 7884.902,1286.704 L 7884.902,1126.903 L 7932.111,1126.903 L 7932.111,1247.822"
               id="path99"
               style="fill:#014698;fill-opacity:1;fill-rule:nonzero;stroke:none" />
            <path
               d="M 8578.344,1239.915 C 8577.496,1281.79 8558.483,1286.704 8540.108,1286.704 L 8384.582,1286.704 L 8384.582,1126.903 L 8431.588,1126.903 L 8431.588,1166.001 L 8520.676,1166.001 C 8530.925,1166.001 8528.365,1148.909 8528.365,1126.903 L 8575.574,1126.903 L 8575.574,1157.885 C 8575.355,1166.001 8575.574,1185.87 8558.483,1186.509 C 8550.794,1186.509 8554,1191.848 8558.483,1191.423 C 8570.655,1191.423 8578.344,1207.017 8578.344,1239.915 z M 8431.588,1247.822 L 8513.406,1247.822 C 8520.24,1247.822 8530.925,1247.822 8530.707,1227.741 C 8530.925,1207.442 8518.317,1208.085 8514.263,1207.442 L 8431.588,1207.442 L 8431.588,1247.822"
               id="path101"
               style="fill:#014698;fill-opacity:1;fill-rule:nonzero;stroke:none" />
            <path
               d="M 9195.113,1239.915 C 9194.248,1281.79 9175.244,1286.704 9156.861,1286.704 L 9001.35,1286.704 L 9001.35,1126.903 L 9048.551,1126.903 L 9048.551,1166.001 L 9137.42,1166.001 C 9147.686,1166.001 9145.117,1148.909 9145.117,1126.903 L 9192.334,1126.903 L 9192.334,1157.885 C 9192.116,1166.001 9192.334,1185.87 9175.244,1186.509 C 9167.554,1186.509 9170.753,1191.848 9175.244,1191.423 C 9187.423,1191.423 9195.113,1207.017 9195.113,1239.915 z M 9048.551,1247.822 L 9130.167,1247.822 C 9136.992,1247.822 9147.686,1247.822 9147.468,1227.741 C 9147.686,1207.442 9135.296,1208.085 9131.015,1207.442 L 9048.551,1207.442 L 9048.551,1247.822"
               id="path103"
               style="fill:#014698;fill-opacity:1;fill-rule:nonzero;stroke:none" />
            <path
               d="M 8365.577,1248.036 C 8364.721,1289.906 8322.422,1286.704 8317.294,1286.704 L 8174.375,1286.704 L 8174.375,1126.903 L 8323.271,1127.116 C 8334.376,1127.116 8343.778,1127.763 8349.98,1130.752 C 8365.577,1138.017 8368.993,1151.686 8368.993,1171.342 C 8368.565,1179.457 8366.853,1205.522 8349.334,1205.947 C 8341.645,1206.378 8344.852,1211.292 8349.334,1211.074 C 8357.241,1214.281 8365.577,1215.136 8365.577,1248.036 z M 8221.802,1191.848 L 8311.955,1191.848 C 8318.57,1191.848 8322.851,1191.848 8323.917,1178.606 C 8322.851,1166.001 8317.294,1166.001 8309.395,1166.001 L 8221.802,1166.001 L 8221.802,1191.848 z M 8221.802,1247.822 L 8309.395,1247.822 C 8309.395,1247.822 8317.294,1247.822 8317.294,1236.713 C 8317.294,1224.748 8309.395,1224.748 8309.395,1224.748 L 8221.802,1224.748 L 8221.802,1247.822"
               id="path105"
               style="fill:#014698;fill-opacity:1;fill-rule:nonzero;stroke:none" />
            <path
               d="M 8978.267,1224.748 L 8854.789,1224.748 L 8854.789,1247.822 L 8978.267,1247.822 L 8978.267,1286.704 L 8808.436,1286.704 L 8808.436,1126.903 L 8978.267,1126.903 L 8978.267,1166.001 L 8854.789,1166.001 L 8854.789,1191.848 L 8978.267,1191.848 L 8978.267,1224.748"
               id="path107"
               style="fill:#014698;fill-opacity:1;fill-rule:nonzero;stroke:none" />
            <path
               d="M 8573.869,1126.903 L 8656.535,1286.704 L 8728.322,1286.704 L 8811.424,1126.903 L 8760.581,1126.903 L 8745.841,1154.675 L 8638.807,1154.675 L 8624.713,1126.903 L 8573.869,1126.903 z M 8686.662,1247.822 L 8658.038,1191.848 L 8727.256,1191.848 L 8697.986,1247.822 L 8686.662,1247.822"
               id="path109"
               style="fill:#014698;fill-opacity:1;fill-rule:nonzero;stroke:none" />
          </g>
        </g>
      </g>
    </g>
  </g>
</svg>
