<?xml version="1.0" encoding="UTF-8"?>
<svg xmlns="http://www.w3.org/2000/svg" id="Layer_1" data-name="Layer 1" viewBox="0 0 24 24">
  <path d="m24,5.5v10.101c0,2.003-.78,3.887-2.196,5.303l-2.95,2.95c-.098.098-.226.146-.354.146s-.256-.049-.354-.146c-.195-.195-.195-.512,0-.707l2.95-2.95c1.228-1.228,1.903-2.859,1.903-4.596V5.5c0-.827-.673-1.5-1.5-1.5s-1.5.673-1.5,1.5c0,0-.009,8.036-.011,8.054-.012.552-.198,1.1-.573,1.546l-2.639,2.746c-.098.102-.229.153-.36.153-.125,0-.25-.046-.347-.14-.199-.191-.205-.508-.014-.707l2.616-2.721c.225-.269.334-.613.327-.959v-.009c-.009-.346-.136-.693-.382-.968-.267-.297-.634-.474-1.032-.496-.395-.017-.782.113-1.08.38l-2.729,2.512c-.521.479-.925,1.053-1.229,1.691.291.745.452,1.542.452,2.356v4.56c0,.276-.224.5-.5.5s-.5-.224-.5-.5v-4.56c0-1.533-.647-3.009-1.776-4.047l-2.734-2.516c-.292-.262-.675-.393-1.075-.375-.398.022-.766.198-1.032.496-.494.551-.508,1.394-.032,1.96l2.594,2.695c.191.199.186.516-.014.707-.197.192-.517.186-.707-.014l-2.616-2.721c-.38-.452-.571-.999-.59-1.547-.004-.027-.016-8.079-.016-8.079,0-.827-.673-1.5-1.5-1.5s-1.5.673-1.5,1.5v10.101c0,1.736.676,3.368,1.903,4.596l2.95,2.95c.195.195.195.512,0,.707-.098.098-.226.146-.354.146s-.256-.049-.354-.146l-2.95-2.95c-1.416-1.416-2.196-3.3-2.196-5.303V5.5c0-1.378,1.121-2.5,2.5-2.5s2.5,1.122,2.5,2.5v5.997c.391-.294.86-.466,1.359-.494.673-.045,1.306.188,1.803.633l2.739,2.521c.43.395.793.848,1.098,1.336.306-.489.669-.939,1.099-1.336l2.734-2.516c.502-.449,1.142-.678,1.808-.637.5.027.969.199,1.359.494v-5.997c0-1.378,1.121-2.5,2.5-2.5s2.5,1.122,2.5,2.5Zm-17.511-.6c-.336-.392-.5-.915-.489-1.4.035-.469.241-1,.594-1.353l1.415-1.415c.473-.472,1.1-.732,1.768-.732h4.447c.668,0,1.295.26,1.768.732l1.415,1.415c.354.354.559.882.594,1.353.012.485-.152,1.006-.487,1.398l-5.135,5.929c-.095.11-.232.173-.378.173s-.283-.063-.378-.173l-5.133-5.927Zm10.405-.9h-2.061l-1.979,4.749,3.9-4.503c.063-.074.101-.16.139-.246Zm-3.085-3l1,2h1.988c-.034-.048-.055-.102-.098-.145l-1.415-1.416c-.279-.279-.666-.439-1.061-.439h-.415Zm-.059,3h-3.022l1.329,4.064,1.693-4.064Zm-3.026-1h2.967l-1-2h-1.326l-.642,2Zm-3.521,0h2.47l.641-2h-.538c-.395,0-.781.16-1.061.439l-1.415,1.415h0c-.043.043-.065.097-.098.146Zm-.096,1c.039.086.077.173.141.248l4.031,4.656-1.603-4.903h-2.569Z"/>
</svg>
